<?xml version="1.0"?>
<svg xmlns="http://www.w3.org/2000/svg" id="Layer_1" enable-background="new 0 0 511.973 511.973" height="512px" viewBox="0 0 511.973 511.973" width="512px"><g><g><path d="m277.932 319.325c-7.352 0-13.333 5.981-13.333 13.333s5.981 13.333 13.333 13.333 13.333-5.981 13.333-13.333-5.981-13.333-13.333-13.333z" data-original="#000000" class="active-path" data-old_color="#000000" fill="#FB5252"/><path d="m183.685 216.819c-9.42 0-17.083 7.664-17.083 17.083 0 9.42 7.664 17.083 17.083 17.083s17.083-7.664 17.083-17.083c.001-9.42-7.663-17.083-17.083-17.083z" data-original="#000000" class="active-path" data-old_color="#000000" fill="#FB5252"/><path d="m459.196 355.989-40.771-23.539c8.943-18.922 14.674-39.644 16.487-61.464h25.118v16.458h30v-62.915h-30v16.458h-25.118c-1.813-21.82-7.545-42.542-16.487-61.464l40.771-23.539 10.236 17.729 25.98-15-35.471-61.438-25.98 15 10.236 17.729-40.814 23.564c-12.21-17.519-27.458-32.766-44.977-44.976l12.593-21.811 14.252 8.229 15-25.98-54.485-31.46-15 25.98 14.252 8.229-12.568 21.769c-18.922-8.943-39.644-14.674-61.464-16.488v-47.06h20.472v-30h-70.943v30h20.472v47.06c-21.82 1.813-42.542 7.545-61.464 16.488l-12.568-21.769 14.252-8.229-15-25.98-54.485 31.458 15 25.98 14.252-8.229 12.593 21.811c-17.519 12.21-32.766 27.458-44.977 44.976l-40.814-23.564 10.236-17.729-25.98-15-35.472 61.439 25.98 15 10.236-17.729 40.771 23.539c-8.943 18.922-14.674 39.644-16.487 61.464h-25.118v-16.458h-30v62.915h30v-16.458h25.118c1.813 21.82 7.545 42.542 16.487 61.464l-40.771 23.539-10.235-17.728-25.98 15 35.471 61.438 25.98-15-10.236-17.728 40.814-23.564c12.21 17.519 27.458 32.766 44.976 44.976l-12.593 21.811-14.252-8.229-15 25.98 54.485 31.458 15-25.98-14.252-8.229 12.568-21.769c18.922 8.943 39.644 14.674 61.464 16.488v47.06h-20.472v30h70.943v-30h-20.472v-47.06c21.82-1.813 42.542-7.545 61.464-16.488l12.568 21.769-14.252 8.229 15 25.98 54.485-31.458-15-25.98-14.252 8.229-12.593-21.811c17.519-12.21 32.766-27.458 44.976-44.976l40.814 23.564-10.236 17.729 25.98 15 35.471-61.438-25.98-15zm-275.511-75.004c-25.962 0-47.083-21.122-47.083-47.083s21.122-47.083 47.083-47.083 47.083 21.122 47.083 47.083c.001 25.962-21.121 47.083-47.083 47.083zm94.247 95.006c-23.894 0-43.333-19.439-43.333-43.333s19.439-43.333 43.333-43.333 43.333 19.439 43.333 43.333-19.439 43.333-43.333 43.333zm39.086-129.508c-23.572 0-42.75-19.178-42.75-42.75s19.178-42.75 42.75-42.75 42.75 19.178 42.75 42.75-19.178 42.75-42.75 42.75z" data-original="#000000" class="active-path" data-old_color="#000000" fill="#FB5252"/><circle cx="317.018" cy="203.733" r="12.75" data-original="#000000" class="active-path" data-old_color="#000000" fill="#FB5252"/></g></g> </svg>
