<?xml version="1.0"?>
<svg xmlns="http://www.w3.org/2000/svg" xmlns:xlink="http://www.w3.org/1999/xlink" version="1.1" id="Capa_1" x="0px" y="0px" viewBox="0 0 413.711 413.711" style="enable-background:new 0 0 413.711 413.711;" xml:space="preserve" width="512px" height="512px"><g><g>
	<g>
		<g>
			<path d="M286.629,25.981c-26.809-0.033-52.526,10.62-71.46,29.6c-18.962,18.959-29.614,44.675-29.611,71.489     c0.005,55.825,45.264,101.076,101.089,101.071s101.076-45.264,101.071-101.089C387.713,71.228,342.454,25.976,286.629,25.981z      M350.596,191.068c-35.346,35.339-92.648,35.333-127.986-0.014c-35.339-35.346-35.333-92.648,0.014-127.986     c35.346-35.339,92.648-35.333,127.986,0.014c16.999,16.956,26.537,39.99,26.5,64     C377.106,151.082,367.569,174.098,350.596,191.068z" data-original="#000000" class="active-path" data-old_color="#000000" fill="#FFFFFF"/>
			<path d="M286.609,52.041c-0.217-0.013-0.434-0.013-0.651,0c-2.922,0.18-5.144,2.694-4.965,5.615     c0.18,2.922,2.694,5.144,5.615,4.965h0c0.013,0,0.027,0,0.04,0c35.589,0.011,64.431,28.871,64.42,64.46     c0.164,2.671,2.294,4.8,4.964,4.964c2.922,0.18,5.436-2.043,5.616-4.964C361.649,85.638,328.053,52.041,286.609,52.041z" data-original="#000000" class="active-path" data-old_color="#000000" fill="#FFFFFF"/>
			<path d="M393.68,58.67C355.89-0.471,277.311-17.78,218.169,20.01c-59.142,37.79-76.45,116.369-38.66,175.511l-9.14,9.14     c-4.242,4.241-6.611,10.002-6.58,16c-0.002,1.572,0.159,3.141,0.48,4.68l-29.82,29.82c-8.739-3.057-18.457-0.851-25.02,5.68     l-102.4,102.4c-9.346,9.407-9.346,24.593,0,34l9.46,9.46c9.407,9.346,24.593,9.346,34,0l102.36-102.44     c6.559-6.545,8.797-16.266,5.76-25.02l29.82-29.92c7.439,1.595,15.181-0.66,20.6-6l9.14-9.14     c41.722,26.66,95.129,26.66,136.851,0C414.162,196.391,431.471,117.812,393.68,58.67z M145.449,296.841l-102.44,102.4     c-5.28,5.242-13.8,5.242-19.08,0l-9.46-9.46c-5.242-5.28-5.242-13.8,0-19.08l102.44-102.46c5.233-5.197,13.662-5.25,18.96-0.12     l0.12,0.18l9.46,9.46l0.12,0.12C150.699,283.179,150.646,291.609,145.449,296.841z M152.789,270.021l-9.18-9.18l25.6-25.56     l1.18,1.18l6.8,6.8l1.18,1.18L152.789,270.021z M201.549,235.841l0.24,0.06c-4.636,4.589-12.089,4.633-16.78,0.1l-0.1-0.1     l-6.8-6.8l-0.1-0.1c-4.533-4.691-4.489-12.144,0.1-16.78l7.82-7.82c2.872,3.748,5.95,7.333,9.22,10.74l0.12,0.12l0.12,0.12     l0.12,0.12l0.12,0.12l0.12,0.12l0.12,0.12l0.12,0.12l0.12,0.12l0.74,0.74l0.84,1.04l0.12,0.12l0.12,0.12l0.12,0.12l0.12,0.12     l0.12,0.12l0.12,0.12l0.12,0.12l0.12,0.12c3.401,3.255,6.98,6.32,10.72,9.18L201.549,235.841z M369.979,209.391     c-45.232,45.779-119.011,46.222-164.79,0.99l-0.74-0.74l-0.12-0.12l-0.12-0.12l-0.12-0.12l-0.12-0.12l-0.74-0.74     c-45.232-45.779-44.789-119.558,0.99-164.79c45.776-45.229,119.547-44.789,164.78,0.98     C414.768,89.844,415.208,163.616,369.979,209.391z" data-original="#000000" class="active-path" data-old_color="#000000" fill="#FFFFFF"/>
		</g>
	</g>
</g></g> </svg>
